<svg width="312" height="312" viewBox="0 0 220 220" fill="none" xmlns="http://www.w3.org/2000/svg">
    <path fill-rule="evenodd" clip-rule="evenodd" d="M 32.7883 188.364 C 75.749 231.326 145.403 231.326 188.365 188.364 C 231.326 145.403 231.326 75.749 188.365 32.7882 C 145.403 -10.1731 75.749 -10.1731 32.7883 32.7882 C -10.173 75.749 -10.173 145.403 32.7883 188.364 Z M 69.041 78.206 L 63.211 72.441 C 51.5704 87.151 45.8907 102.081 46.1714 117.232 C 46.4521 132.386 52.6852 145.984 64.866 158.028 C 77.046 170.072 90.727 176.165 105.914 176.304 C 121.099 176.446 135.978 170.612 150.553 158.805 L 144.629 152.946 C 119.744 168.802 97.031 166.576 76.492 146.268 C 55.952 125.958 53.4677 103.27 69.041 78.206 Z M 94.06 64.559 C 94.085 69.121 95.72 73.009 98.971 76.223 C 102.219 79.435 106.141 81.042 110.736 81.048 C 115.33 81.052 119.232 79.428 122.445 76.178 C 125.66 72.926 127.256 69.02 127.231 64.458 C 127.206 59.896 125.537 55.975 122.226 52.7007 C 118.975 49.4869 115.069 47.8953 110.507 47.9223 C 105.946 47.9492 102.057 49.5869 98.842 52.8391 C 95.629 56.089 94.035 59.997 94.06 64.559 Z M 141.314 111.283 C 141.37 115.876 143.023 119.782 146.272 122.994 C 149.522 126.207 153.428 127.799 157.99 127.772 C 162.552 127.745 166.439 126.105 169.652 122.855 C 172.867 119.603 174.462 115.697 174.438 111.135 C 174.413 106.573 172.777 102.685 169.527 99.471 C 166.279 96.259 162.355 94.65 157.762 94.646 C 153.168 94.642 149.264 96.264 146.049 99.516 C 142.835 102.767 141.258 106.689 141.314 111.283 Z" fill="white"/>
</svg>
