<?xml version="1.0" standalone="no"?>
<!DOCTYPE svg PUBLIC "-//W3C//DTD SVG 20010904//EN"
 "http://www.w3.org/TR/2001/REC-SVG-20010904/DTD/svg10.dtd">
<svg version="1.0" xmlns="http://www.w3.org/2000/svg"
 width="42" height="21" viewBox="0 0 350.000000 200.000000"
 preserveAspectRatio="xMidYMid meet">

<g transform="translate(0.000000,200.000000) scale(0.100000,-0.100000)"
fill="#000000" stroke="none">
<path d="M1368 1578 c-2 -117 -2 -489 0 -825 l2 -612 198 157 c343 274 367
292 380 292 8 0 142 -99 299 -221 156 -121 287 -219 289 -216 2 2 3 345 2 763
l-3 759 -66 -115 c-37 -63 -98 -173 -137 -245 -107 -200 -110 -205 -168 -282
-108 -141 -205 -185 -330 -148 -113 33 -206 157 -329 440 -35 81 -51 97 -89
89 -30 -6 -29 -4 24 50 88 91 176 120 228 76 13 -11 46 -70 73 -131 103 -234
201 -359 280 -359 62 0 123 73 309 371 25 40 82 129 128 197 45 69 82 135 82
148 l0 24 -585 0 -584 0 -3 -212z"/>
<path d="M568 1650 c-65 -52 -118 -101 -118 -110 0 -9 9 -60 20 -113 51 -245
184 -489 296 -542 41 -19 134 -19 179 -1 78 33 153 116 296 326 79 116 89 133
54 95 -121 -136 -230 -245 -259 -259 -79 -38 -135 -12 -192 90 -69 123 -137
373 -156 573 l-3 34 -117 -93z"/>
</g>
</svg>
