<svg width="12" height="9" viewBox="0 0 12 9" fill="none" xmlns="http://www.w3.org/2000/svg">
<path d="M3.9878 0.00463092V1.01395C3.75748 1.05601 3.52404 1.0865 3.29579 1.14012C2.81605 1.26315 2.3912 1.54704 2.08998 1.94589C1.78875 2.34474 1.62878 2.83521 1.63595 3.33791C1.66471 4.34724 2.44921 5.38305 3.41313 5.42259C5.23418 5.49765 7.05958 5.44362 8.93505 5.44362V3.16844L11.8262 6.10829L8.9816 9V6.61737C8.725 6.60581 8.52635 6.59151 8.32811 6.58898C6.67468 6.56943 5.01565 6.63272 3.36946 6.51181C1.56269 6.37913 0.426408 4.78103 0.592165 2.82652C0.730192 1.20004 2.25449 -0.0872594 3.9878 0.00463092Z" fill="#F4FF00"/>
</svg>
