<svg width="450" height="449" viewBox="0 0 450 449" fill="none" xmlns="http://www.w3.org/2000/svg">
    <path d="M195.911 228.625V224.135C195.911 223.183 195.532 222.269 194.859 221.596C194.185 220.922 193.272 220.543 192.319 220.543C191.366 220.543 190.453 220.922 189.779 221.596C189.105 222.269 188.727 223.183 188.727 224.135V228.625C188.727 235.672 185.928 242.43 180.945 247.412C175.962 252.395 169.205 255.194 162.158 255.194C155.112 255.194 148.354 252.395 143.371 247.412C138.388 242.43 135.589 235.672 135.589 228.625V224.135C135.589 223.183 135.211 222.269 134.537 221.596C133.864 220.922 132.95 220.543 131.997 220.543C131.045 220.543 130.131 220.922 129.457 221.596C128.784 222.269 128.405 223.183 128.405 224.135V228.625C128.444 236.917 131.544 244.903 137.111 251.049C142.677 257.195 150.318 261.067 158.566 261.923V273.597H137.014C136.061 273.597 135.148 273.976 134.474 274.649C133.801 275.323 133.422 276.237 133.422 277.189C133.422 278.142 133.801 279.056 134.474 279.729C135.148 280.403 136.061 280.781 137.014 280.781H187.302C188.255 280.781 189.168 280.403 189.842 279.729C190.516 279.056 190.894 278.142 190.894 277.189C190.894 276.237 190.516 275.323 189.842 274.649C189.168 273.976 188.255 273.597 187.302 273.597H165.75V261.923C173.998 261.067 181.639 257.195 187.206 251.049C192.772 244.903 195.873 236.917 195.911 228.625Z" fill="#F4FF00"/>
    <path d="M162.158 245.484C166.664 245.484 170.986 243.694 174.172 240.508C177.358 237.321 179.148 233 179.148 228.494V190.011C179.148 187.78 178.709 185.571 177.855 183.51C177.001 181.448 175.75 179.575 174.172 177.998C172.594 176.42 170.721 175.168 168.66 174.315C166.599 173.461 164.389 173.021 162.158 173.021C159.927 173.021 157.718 173.461 155.656 174.315C153.595 175.168 151.722 176.42 150.144 177.998C148.567 179.575 147.315 181.448 146.461 183.51C145.607 185.571 145.168 187.78 145.168 190.011V228.494C145.168 233 146.958 237.321 150.144 240.508C153.331 243.694 157.652 245.484 162.158 245.484Z" fill="#F4FF00"/>
    <path fill-rule="evenodd" clip-rule="evenodd" d="M257.691 195.011H300.687C306.618 195.011 311.437 199.83 311.437 205.76V237.267C311.437 243.197 306.618 248.016 300.687 248.016H257.691C251.76 248.016 246.941 243.197 246.941 237.267V205.76C246.941 199.83 251.76 195.011 257.691 195.011ZM338.575 202.054V240.973C338.575 242.456 337.092 243.197 335.98 242.456C330.67 239.469 325.656 236.481 320.674 233.494C319.592 232.845 318.93 231.676 318.93 230.414V212.613C318.93 211.351 319.592 210.181 320.674 209.533C325.656 206.545 330.67 203.558 335.98 200.571C337.834 199.83 338.575 201.312 338.575 202.054Z" fill="#F4FF00"/>
</svg>
