<svg width="449" height="449" viewBox="0 0 449 449" fill="none" xmlns="http://www.w3.org/2000/svg">
<path d="M14.3735 82.956H19.1844L40.323 116.166V82.956H45.2796V125H40.3813L19.301 91.8488V125H14.3735V82.956ZM52.1758 103.978C52.1758 99.7211 52.8172 95.9891 54.1001 92.7818C55.383 89.5746 57.3365 87.038 59.9606 85.1719C62.5847 83.3059 65.7434 82.3729 69.4365 82.3729C73.1492 82.3729 76.3175 83.3059 78.9416 85.1719C81.5852 87.038 83.529 89.5746 84.773 92.7818C86.0364 96.0085 86.6682 99.7406 86.6682 103.978C86.6682 108.235 86.0364 111.977 84.773 115.203C83.5095 118.411 81.5755 120.947 78.9708 122.813C76.3467 124.679 73.188 125.612 69.4949 125.612C65.8017 125.612 62.643 124.679 60.0189 122.813C57.3948 120.947 55.4413 118.411 54.1584 115.203C52.8755 111.996 52.2341 108.254 52.2341 103.978H52.1758ZM57.2782 103.978C57.2782 109.498 58.2987 113.755 60.3397 116.749C62.3806 119.762 65.374 121.268 69.3199 121.268C73.2269 121.268 76.2203 119.762 78.3002 116.749C80.38 113.736 81.42 109.479 81.42 103.978C81.42 98.4771 80.3898 94.2299 78.3293 91.2365C76.2495 88.2237 73.2658 86.7172 69.3782 86.7172C65.4518 86.7172 62.4681 88.2139 60.4271 91.2074C58.3862 94.2202 57.3657 98.4771 57.3657 103.978H57.2782ZM88.6077 82.956H115.84V87.1546H104.731V125H99.7747V87.1546H88.6077V82.956ZM132.577 104.065C132.577 97.5149 134.171 92.2764 137.359 88.35C140.527 84.443 144.784 82.4895 150.13 82.4895C152.384 82.4895 154.416 82.7811 156.223 83.3642C158.031 83.9473 159.557 84.7735 160.801 85.8425C162.025 86.8922 163.056 88.107 163.891 89.4871C164.708 90.8283 165.349 92.3445 165.816 94.0356L161.151 94.9394C160.198 92.1793 158.77 90.1286 156.865 88.7874C154.96 87.4461 152.724 86.7755 150.159 86.7755C146.174 86.7755 143.112 88.2528 140.974 91.2074C138.856 94.1425 137.796 98.4188 137.796 104.036C137.796 109.673 138.856 113.959 140.974 116.894C143.112 119.849 146.174 121.326 150.159 121.326C152.102 121.326 153.852 120.947 155.407 120.189C156.981 119.412 158.225 118.411 159.139 117.186C160.072 115.942 160.772 114.552 161.238 113.017C161.705 111.5 161.938 109.907 161.938 108.235V106.136H150.1V101.879H166.72V125H162.463L161.821 119.139C161.102 120.695 159.615 122.162 157.36 123.542C155.125 124.903 152.559 125.583 149.663 125.583C145.989 125.583 142.85 124.66 140.245 122.813C137.66 120.986 135.726 118.459 134.443 115.232C133.16 112.025 132.519 108.274 132.519 103.978L132.577 104.065ZM173.295 103.978C173.295 99.7211 173.937 95.9891 175.219 92.7818C176.502 89.5746 178.456 87.038 181.08 85.1719C183.704 83.3059 186.863 82.3729 190.556 82.3729C194.269 82.3729 197.437 83.3059 200.061 85.1719C202.705 87.038 204.648 89.5746 205.892 92.7818C207.156 96.0085 207.788 99.7406 207.788 103.978C207.788 108.235 207.156 111.977 205.892 115.203C204.629 118.411 202.695 120.947 200.09 122.813C197.466 124.679 194.307 125.612 190.614 125.612C186.921 125.612 183.762 124.679 181.138 122.813C178.514 120.947 176.561 118.411 175.278 115.203C173.995 111.996 173.353 108.254 173.353 103.978H173.295ZM178.398 103.978C178.398 109.498 179.418 113.755 181.459 116.749C183.5 119.762 186.493 121.268 190.439 121.268C194.346 121.268 197.34 119.762 199.42 116.749C201.499 113.736 202.539 109.479 202.539 103.978C202.539 98.4771 201.509 94.2299 199.449 91.2365C197.369 88.2237 194.385 86.7172 190.498 86.7172C186.571 86.7172 183.587 88.2139 181.546 91.2074C179.505 94.2202 178.485 98.4771 178.485 103.978H178.398ZM214.713 82.956H219.64V125H214.713V82.956ZM227.761 82.956H232.572L253.71 116.166V82.956H258.667V125H253.769L232.689 91.8488V125H227.761V82.956ZM265.068 104.065C265.068 97.5149 266.662 92.2764 269.849 88.35C273.018 84.443 277.275 82.4895 282.62 82.4895C284.875 82.4895 286.906 82.7811 288.714 83.3642C290.521 83.9473 292.047 84.7735 293.291 85.8425C294.516 86.8922 295.546 88.107 296.382 89.4871C297.198 90.8283 297.84 92.3445 298.306 94.0356L293.641 94.9394C292.689 92.1793 291.26 90.1286 289.355 88.7874C287.45 87.4461 285.215 86.7755 282.649 86.7755C278.664 86.7755 275.603 88.2528 273.465 91.2074C271.346 94.1425 270.287 98.4188 270.287 104.036C270.287 109.673 271.346 113.959 273.465 116.894C275.603 119.849 278.664 121.326 282.649 121.326C284.593 121.326 286.342 120.947 287.897 120.189C289.472 119.412 290.716 118.411 291.629 117.186C292.562 115.942 293.262 114.552 293.729 113.017C294.195 111.5 294.428 109.907 294.428 108.235V106.136H282.591V101.879H299.21V125H294.953L294.312 119.139C293.593 120.695 292.106 122.162 289.851 123.542C287.615 124.903 285.05 125.583 282.153 125.583C278.48 125.583 275.34 124.66 272.736 122.813C270.151 120.986 268.217 118.459 266.934 115.232C265.651 112.025 265.009 108.274 265.009 103.978L265.068 104.065ZM317.376 82.956H344.608V87.1546H333.5V125H328.543V87.1546H317.376V82.956ZM346.519 103.978C346.519 99.7211 347.16 95.9891 348.443 92.7818C349.726 89.5746 351.679 87.038 354.304 85.1719C356.928 83.3059 360.086 82.3729 363.779 82.3729C367.492 82.3729 370.66 83.3059 373.285 85.1719C375.928 87.038 377.872 89.5746 379.116 92.7818C380.379 96.0085 381.011 99.7406 381.011 103.978C381.011 108.235 380.379 111.977 379.116 115.203C377.852 118.411 375.918 120.947 373.314 122.813C370.69 124.679 367.531 125.612 363.838 125.612C360.145 125.612 356.986 124.679 354.362 122.813C351.738 120.947 349.784 118.411 348.501 115.203C347.218 111.996 346.577 108.254 346.577 103.978H346.519ZM351.621 103.978C351.621 109.498 352.642 113.755 354.683 116.749C356.724 119.762 359.717 121.268 363.663 121.268C367.57 121.268 370.563 119.762 372.643 116.749C374.723 113.736 375.763 109.479 375.763 103.978C375.763 98.4771 374.733 94.2299 372.672 91.2365C370.592 88.2237 367.609 86.7172 363.721 86.7172C359.795 86.7172 356.811 88.2139 354.77 91.2074C352.729 94.2202 351.709 98.4771 351.709 103.978H351.621ZM14.3735 132.956H19.301V170.714H39.0109V175H14.3735V132.956ZM44.1577 132.956H49.0852V175H44.1577V132.956ZM57.2059 132.956H85.0214V137.33H62.1334V151.237H82.4556V155.582H62.1334V170.714H85.0214V175H57.2059V132.956ZM91.1012 168.323H97.8364V175L93.6086 181.677H91.1012L94.1335 175H91.1012V168.323ZM116.148 132.956H143.38V137.155H132.272V175H127.315V137.155H116.148V132.956ZM148.527 132.956H153.455V151.237H173.485V132.956H178.5V175H173.485V155.582H153.455V175H148.527V132.956ZM198.575 132.956H203.532L218.693 175H213.562L210.296 165.816H191.782L188.487 175H183.355L198.575 132.956ZM208.78 161.442L201.083 139.72L193.327 161.442H208.78ZM217.221 132.956H244.454V137.155H233.345V175H228.388V137.155H217.221V132.956Z" fill="#F4FF00"/>
<path d="M262.94 132.956H267.868V175H262.94V132.956ZM279.546 161.18C279.546 162.074 279.672 162.958 279.925 163.833C280.197 164.766 280.615 165.67 281.178 166.545C281.762 167.439 282.471 168.236 283.307 168.935C284.123 169.616 285.192 170.179 286.514 170.626C287.778 171.054 289.197 171.268 290.771 171.268C292.579 171.268 294.26 170.976 295.815 170.393C297.37 169.81 298.653 168.897 299.664 167.653C300.694 166.389 301.209 164.921 301.209 163.25C301.209 162.103 301.005 161.073 300.597 160.159C300.189 159.246 299.664 158.526 299.022 158.002C298.381 157.477 297.584 157.039 296.632 156.69C295.621 156.32 294.697 156.068 293.862 155.932C292.987 155.795 291.976 155.679 290.829 155.582C280.838 154.707 275.843 150.907 275.843 144.181C275.843 142.568 276.134 141.091 276.717 139.75C277.301 138.408 278.068 137.291 279.021 136.397C279.993 135.483 281.11 134.725 282.374 134.122C283.657 133.52 284.969 133.082 286.31 132.81C286.99 132.674 287.671 132.577 288.351 132.519C289.031 132.441 289.712 132.402 290.392 132.402C292.161 132.402 293.881 132.664 295.553 133.189C297.263 133.734 298.77 134.472 300.072 135.405C301.413 136.377 302.521 137.611 303.396 139.108C304.271 140.624 304.766 142.315 304.883 144.181L300.101 145.027C299.829 142.306 298.799 140.245 297.011 138.846C295.203 137.446 293.016 136.746 290.45 136.746C289.245 136.746 288.089 136.892 286.981 137.184C285.892 137.475 284.862 137.913 283.89 138.496C282.938 139.079 282.17 139.866 281.587 140.857C281.004 141.849 280.712 142.976 280.712 144.24C280.712 148.283 284.162 150.635 291.063 151.296C291.626 151.354 292.151 151.412 292.637 151.471C293.142 151.529 293.609 151.597 294.037 151.675C294.872 151.83 295.864 152.034 297.011 152.287C298.138 152.54 299.11 152.86 299.926 153.249C300.743 153.638 301.588 154.134 302.463 154.736C303.318 155.339 304.018 156.029 304.562 156.806C305.087 157.564 305.524 158.507 305.874 159.634C306.224 160.781 306.399 162.035 306.399 163.396C306.399 165.845 305.728 168.002 304.387 169.868C303.046 171.734 301.209 173.163 298.877 174.154C296.544 175.146 293.92 175.641 291.004 175.641C288.788 175.641 286.777 175.369 284.969 174.825C283.142 174.281 281.616 173.552 280.391 172.638C279.206 171.764 278.175 170.724 277.301 169.519C276.484 168.391 275.862 167.176 275.435 165.874C275.046 164.649 274.832 163.396 274.793 162.113L279.546 161.18ZM323.632 132.956H350.864V137.155H339.755V175H334.799V137.155H323.632V132.956ZM356.011 132.956H360.938V151.237H380.969V132.956H385.984V175H380.969V155.582H360.938V175H356.011V132.956ZM394.134 132.956H421.949V137.33H399.061V151.237H419.384V155.582H399.061V170.714H421.949V175H394.134V132.956ZM17.9306 211.18C17.9306 212.074 18.057 212.958 18.3097 213.833C18.5818 214.766 18.9997 215.67 19.5634 216.545C20.1465 217.439 20.856 218.236 21.6918 218.935C22.5082 219.616 23.5773 220.179 24.8991 220.626C26.1625 221.054 27.5815 221.268 29.156 221.268C30.9637 221.268 32.645 220.976 34.2001 220.393C35.7551 219.81 37.038 218.897 38.0488 217.653C39.079 216.389 39.5941 214.921 39.5941 213.25C39.5941 212.103 39.39 211.073 38.9818 210.159C38.5736 209.246 38.0488 208.526 37.4073 208.002C36.7659 207.477 35.9689 207.039 35.0165 206.69C34.0057 206.32 33.0824 206.068 32.2466 205.932C31.3719 205.795 30.3611 205.679 29.2143 205.582C19.2232 204.707 14.2277 200.907 14.2277 194.181C14.2277 192.568 14.5193 191.091 15.1024 189.75C15.6856 188.408 16.4534 187.291 17.4058 186.397C18.3777 185.483 19.4954 184.725 20.7588 184.122C22.0417 183.52 23.3538 183.082 24.695 182.81C25.3753 182.674 26.0556 182.577 26.736 182.519C27.4163 182.441 28.0966 182.402 28.7769 182.402C30.5458 182.402 32.266 182.664 33.9377 183.189C35.6482 183.734 37.1546 184.472 38.457 185.405C39.7982 186.377 40.9061 187.611 41.7808 189.108C42.6555 190.624 43.1512 192.315 43.2678 194.181L38.4861 195.027C38.214 192.306 37.1838 190.245 35.3955 188.846C33.5878 187.446 31.401 186.746 28.8352 186.746C27.6301 186.746 26.4735 186.892 25.3656 187.184C24.2771 187.475 23.2469 187.913 22.275 188.496C21.3225 189.079 20.5547 189.866 19.9716 190.857C19.3885 191.849 19.0969 192.976 19.0969 194.24C19.0969 198.283 22.5471 200.635 29.4475 201.296C30.0112 201.354 30.536 201.412 31.022 201.471C31.5274 201.529 31.9939 201.597 32.4215 201.675C33.2573 201.83 34.2487 202.034 35.3955 202.287C36.5229 202.54 37.4948 202.86 38.3112 203.249C39.1276 203.638 39.9731 204.134 40.8478 204.736C41.7031 205.339 42.4028 206.029 42.9471 206.806C43.4719 207.564 43.9093 208.507 44.2591 209.634C44.609 210.781 44.784 212.035 44.784 213.396C44.784 215.845 44.1134 218.002 42.7721 219.868C41.4309 221.734 39.5941 223.163 37.2615 224.154C34.929 225.146 32.3049 225.641 29.3892 225.641C27.1733 225.641 25.1615 225.369 23.3538 224.825C21.5266 224.281 20.0008 223.552 18.7762 222.638C17.5905 221.764 16.5603 220.724 15.6856 219.519C14.8692 218.391 14.2472 217.176 13.8195 215.874C13.4308 214.649 13.217 213.396 13.1781 212.113L17.9306 211.18ZM51.6801 182.956H79.4956V187.33H56.6076V201.237H76.9298V205.582H56.6076V220.714H79.4956V225H51.6801V182.956ZM96.5383 203.949C96.0329 203.171 95.2554 201.956 94.2058 200.304C93.1756 198.633 91.8732 196.494 90.2988 193.89C88.7243 191.285 87.3831 189.079 86.2751 187.271C85.1672 185.463 84.3022 184.025 83.6802 182.956H89.1908L99.2207 199.75C102.856 193.627 106.209 188.029 109.28 182.956H114.761L101.932 203.92C102.224 204.386 102.885 205.475 103.915 207.185C104.965 208.896 106.403 211.238 108.23 214.212C110.057 217.186 111.515 219.567 112.604 221.355C113.712 223.144 114.46 224.349 114.849 224.971H109.309L99.279 208.206C99.0652 208.594 97.4908 211.248 94.5556 216.166C91.6011 221.103 89.8225 224.048 89.22 225H83.7093L96.5383 203.949ZM120.229 182.956H125.156V225H120.229V182.956ZM133.277 182.956H161.092V187.33H138.204V201.237H158.527V205.582H138.204V220.714H161.092V225H133.277V182.956ZM171.575 211.18C171.575 212.074 171.701 212.958 171.954 213.833C172.226 214.766 172.644 215.67 173.208 216.545C173.791 217.439 174.5 218.236 175.336 218.935C176.152 219.616 177.222 220.179 178.543 220.626C179.807 221.054 181.226 221.268 182.8 221.268C184.608 221.268 186.289 220.976 187.844 220.393C189.399 219.81 190.682 218.897 191.693 217.653C192.723 216.389 193.238 214.921 193.238 213.25C193.238 212.103 193.034 211.073 192.626 210.159C192.218 209.246 191.693 208.526 191.052 208.002C190.41 207.477 189.613 207.039 188.661 206.69C187.65 206.32 186.727 206.068 185.891 205.932C185.016 205.795 184.005 205.679 182.859 205.582C172.867 204.707 167.872 200.907 167.872 194.181C167.872 192.568 168.164 191.091 168.747 189.75C169.33 188.408 170.098 187.291 171.05 186.397C172.022 185.483 173.14 184.725 174.403 184.122C175.686 183.52 176.998 183.082 178.339 182.81C179.02 182.674 179.7 182.577 180.38 182.519C181.061 182.441 181.741 182.402 182.421 182.402C184.19 182.402 185.91 182.664 187.582 183.189C189.292 183.734 190.799 184.472 192.101 185.405C193.442 186.377 194.55 187.611 195.425 189.108C196.3 190.624 196.795 192.315 196.912 194.181L192.13 195.027C191.858 192.306 190.828 190.245 189.04 188.846C187.232 187.446 185.045 186.746 182.479 186.746C181.274 186.746 180.118 186.892 179.01 187.184C177.921 187.475 176.891 187.913 175.919 188.496C174.967 189.079 174.199 189.866 173.616 190.857C173.033 191.849 172.741 192.976 172.741 194.24C172.741 198.283 176.191 200.635 183.092 201.296C183.655 201.354 184.18 201.412 184.666 201.471C185.172 201.529 185.638 201.597 186.066 201.675C186.902 201.83 187.893 202.034 189.04 202.287C190.167 202.54 191.139 202.86 191.955 203.249C192.772 203.638 193.617 204.134 194.492 204.736C195.347 205.339 196.047 206.029 196.591 206.806C197.116 207.564 197.554 208.507 197.903 209.634C198.253 210.781 198.428 212.035 198.428 213.396C198.428 215.845 197.758 218.002 196.416 219.868C195.075 221.734 193.238 223.163 190.906 224.154C188.573 225.146 185.949 225.641 183.033 225.641C180.818 225.641 178.806 225.369 176.998 224.825C175.171 224.281 173.645 223.552 172.42 222.638C171.235 221.764 170.205 220.724 169.33 219.519C168.513 218.391 167.891 217.176 167.464 215.874C167.075 214.649 166.861 213.396 166.822 212.113L171.575 211.18ZM201.388 182.956H228.621V187.155H217.512V225H212.555V187.155H201.388V182.956ZM12.4492 253.978C12.4492 249.779 13.11 246.047 14.4318 242.782C15.7342 239.575 17.7071 237.028 20.3506 235.143C22.9747 233.277 26.0848 232.344 29.6808 232.344C31.5663 232.344 33.3351 232.626 34.9873 233.189C36.6201 233.753 37.9904 234.453 39.0984 235.289C40.2258 236.144 41.2074 237.135 42.0432 238.263C42.4709 238.826 42.8499 239.37 43.1803 239.895C43.5108 240.42 43.7926 240.935 44.0259 241.441C44.473 242.393 44.8326 243.384 45.1047 244.415L40.2064 245.318C39.9731 244.599 39.6815 243.87 39.3317 243.132C39.0012 242.432 38.5153 241.674 37.8738 240.857C37.2518 240.08 36.5812 239.38 35.862 238.758C35.1234 238.156 34.2195 237.66 33.1504 237.271C32.0425 236.882 30.9054 236.688 29.7391 236.688C25.871 236.688 22.897 238.195 20.8171 241.207C18.7373 244.22 17.6974 248.467 17.6974 253.949C17.6974 259.43 18.7373 263.697 20.8171 266.749C22.8775 269.781 25.8515 271.297 29.7391 271.297C31.2552 271.297 32.645 271.006 33.9085 270.422C35.172 269.839 36.2119 269.081 37.0283 268.148C37.8252 267.235 38.4958 266.311 39.0401 265.378C39.5843 264.445 39.9828 263.522 40.2355 262.608L45.1338 263.512C44.9395 264.426 44.5993 265.417 44.1134 266.486C43.6663 267.478 42.9957 268.537 42.1015 269.664C41.2074 270.792 40.2161 271.773 39.1276 272.609C38.0196 273.464 36.6492 274.164 35.0165 274.708C33.3642 275.272 31.6051 275.554 29.7391 275.554C26.182 275.554 23.0816 274.631 20.4381 272.784C17.8334 270.957 15.8702 268.42 14.5484 265.174C13.2267 261.909 12.5658 258.177 12.5658 253.978H12.4492ZM51.4469 232.956H56.3743V251.237H76.405V232.956H81.42V275H76.405V255.582H56.3743V275H51.4469V232.956ZM89.5698 232.956H94.4973V275H89.5698V232.956ZM102.618 232.956H107.429L128.568 266.166V232.956H133.524V275H128.626L107.546 241.849V275H102.618V232.956ZM139.75 253.978C139.75 249.779 140.411 246.047 141.732 242.782C143.035 239.575 145.008 237.028 147.651 235.143C150.275 233.277 153.385 232.344 156.981 232.344C158.867 232.344 160.636 232.626 162.288 233.189C163.921 233.753 165.291 234.453 166.399 235.289C167.526 236.144 168.508 237.135 169.344 238.263C169.771 238.826 170.15 239.37 170.481 239.895C170.811 240.42 171.093 240.935 171.326 241.441C171.774 242.393 172.133 243.384 172.405 244.415L167.507 245.318C167.274 244.599 166.982 243.87 166.632 243.132C166.302 242.432 165.816 241.674 165.174 240.857C164.552 240.08 163.882 239.38 163.163 238.758C162.424 238.156 161.52 237.66 160.451 237.271C159.343 236.882 158.206 236.688 157.04 236.688C153.172 236.688 150.198 238.195 148.118 241.207C146.038 244.22 144.998 248.467 144.998 253.949C144.998 259.43 146.038 263.697 148.118 266.749C150.178 269.781 153.152 271.297 157.04 271.297C158.556 271.297 159.946 271.006 161.209 270.422C162.473 269.839 163.512 269.081 164.329 268.148C165.126 267.235 165.796 266.311 166.341 265.378C166.885 264.445 167.283 263.522 167.536 262.608L172.434 263.512C172.24 264.426 171.9 265.417 171.414 266.486C170.967 267.478 170.296 268.537 169.402 269.664C168.508 270.792 167.517 271.773 166.428 272.609C165.32 273.464 163.95 274.164 162.317 274.708C160.665 275.272 158.906 275.554 157.04 275.554C153.483 275.554 150.382 274.631 147.739 272.784C145.134 270.957 143.171 268.42 141.849 265.174C140.527 261.909 139.866 258.177 139.866 253.978H139.75ZM178.747 232.956H183.675V251.237H203.706V232.956H208.721V275H203.706V255.582H183.675V275H178.747V232.956ZM216.87 232.956H221.798V275H216.87V232.956ZM229.919 232.956H234.846V270.714H254.556V275H229.919V232.956ZM259.703 232.956H264.63V270.714H284.34V275H259.703V232.956ZM301.412 232.956H306.369L321.53 275H316.399L313.133 265.816H294.619L291.324 275H286.192L301.412 232.956ZM311.617 261.442L303.92 239.72L296.164 261.442H311.617ZM339.725 232.956H344.653V275H339.725V232.956ZM14.3735 282.956H19.301V301.237H39.3317V282.956H44.3466V325H39.3317V305.582H19.301V325H14.3735V282.956ZM64.4216 282.956H69.3782L84.5397 325H79.4081L76.1426 315.816H57.6281L54.3334 325H49.2018L64.4216 282.956ZM74.6264 311.442L66.9291 289.72L59.1734 311.442H74.6264ZM86.1002 282.956L98.5793 317.769L111 282.956H116.19L101.087 325H96.0718L80.9686 282.956H86.1002ZM121.278 282.956H149.094V287.33H126.206V301.237H146.528V305.582H126.206V320.714H149.094V325H121.278V282.956ZM169.359 282.956H197.174V287.33H174.286V301.237H194.609V305.582H174.286V320.714H197.174V325H169.359V282.956ZM206.228 282.956L218.707 317.769L231.128 282.956H236.318L221.215 325H216.2L201.097 282.956H206.228ZM241.406 282.956H269.222V287.33H246.334V301.237H266.656V305.582H246.334V320.714H269.222V325H241.406V282.956ZM276.118 282.927H292.825C296.304 282.927 299.123 284.122 301.28 286.513C303.438 288.904 304.517 291.878 304.517 295.435C304.517 298.914 303.555 301.801 301.63 304.095C299.706 306.388 297.121 307.623 293.874 307.798H293.087L306.878 325H301.047C297.607 320.763 294.749 317.235 292.475 314.416C290.201 311.578 288.471 309.411 287.285 307.914H281.075V325H276.147L276.118 282.927ZM292.708 303.599C294.652 303.599 296.285 302.763 297.607 301.091C298.909 299.439 299.56 297.544 299.56 295.406C299.56 293.248 298.909 291.363 297.607 289.75C296.285 288.117 294.652 287.3 292.708 287.3H281.046V303.599H292.708ZM17.9306 361.18C17.9306 362.074 18.057 362.958 18.3097 363.833C18.5818 364.766 18.9997 365.67 19.5634 366.545C20.1465 367.439 20.856 368.236 21.6918 368.935C22.5082 369.616 23.5773 370.179 24.8991 370.626C26.1625 371.054 27.5815 371.268 29.156 371.268C30.9637 371.268 32.645 370.976 34.2001 370.393C35.7551 369.81 37.038 368.897 38.0488 367.653C39.079 366.389 39.5941 364.921 39.5941 363.25C39.5941 362.103 39.39 361.073 38.9818 360.159C38.5736 359.246 38.0488 358.526 37.4073 358.002C36.7659 357.477 35.9689 357.039 35.0165 356.69C34.0057 356.32 33.0824 356.068 32.2466 355.932C31.3719 355.795 30.3611 355.679 29.2143 355.582C19.2232 354.707 14.2277 350.907 14.2277 344.181C14.2277 342.568 14.5193 341.091 15.1024 339.75C15.6856 338.408 16.4534 337.291 17.4058 336.397C18.3777 335.483 19.4954 334.725 20.7588 334.122C22.0417 333.52 23.3538 333.082 24.695 332.81C25.3753 332.674 26.0556 332.577 26.736 332.519C27.4163 332.441 28.0966 332.402 28.7769 332.402C30.5458 332.402 32.266 332.664 33.9377 333.189C35.6482 333.734 37.1546 334.472 38.457 335.405C39.7982 336.377 40.9061 337.611 41.7808 339.108C42.6555 340.624 43.1512 342.315 43.2678 344.181L38.4861 345.027C38.214 342.306 37.1838 340.245 35.3955 338.846C33.5878 337.446 31.401 336.746 28.8352 336.746C27.6301 336.746 26.4735 336.892 25.3656 337.184C24.2771 337.475 23.2469 337.913 22.275 338.496C21.3225 339.079 20.5547 339.866 19.9716 340.857C19.3885 341.849 19.0969 342.976 19.0969 344.24C19.0969 348.283 22.5471 350.635 29.4475 351.296C30.0112 351.354 30.536 351.412 31.022 351.471C31.5274 351.529 31.9939 351.597 32.4215 351.675C33.2573 351.83 34.2487 352.034 35.3955 352.287C36.5229 352.54 37.4948 352.86 38.3112 353.249C39.1276 353.638 39.9731 354.134 40.8478 354.736C41.7031 355.339 42.4028 356.029 42.9471 356.806C43.4719 357.564 43.9093 358.507 44.2591 359.634C44.609 360.781 44.784 362.035 44.784 363.396C44.784 365.845 44.1134 368.002 42.7721 369.868C41.4309 371.734 39.5941 373.163 37.2615 374.154C34.929 375.146 32.3049 375.641 29.3892 375.641C27.1733 375.641 25.1615 375.369 23.3538 374.825C21.5266 374.281 20.0008 373.552 18.7762 372.638C17.5905 371.764 16.5603 370.724 15.6856 369.519C14.8692 368.391 14.2472 367.176 13.8195 365.874C13.4308 364.649 13.217 363.396 13.1781 362.113L17.9306 361.18ZM51.6801 332.956H79.4956V337.33H56.6076V351.237H76.9298V355.582H56.6076V370.714H79.4956V375H51.6801V332.956ZM86.4209 332.956H114.236V337.33H91.3484V351.237H111.671V355.582H91.3484V370.714H114.236V375H86.4209V332.956ZM121.162 332.956H125.973L147.111 366.166V332.956H152.068V375H147.17L126.089 341.849V375H121.162V332.956ZM159.664 368.323H166.399V375H159.664V368.323Z" fill="white"/>

</svg>
